<svg width="100" height="80" viewBox="0 0 100 80" fill="none" xmlns="http://www.w3.org/2000/svg">
<path fill-rule="evenodd" clip-rule="evenodd" d="M62.7766 10.3944L52.5639 3.11271C50.987 1.98842 48.8705 1.98842 47.2937 3.11271L37.081 10.3944C35.8863 11.2462 35.1771 12.6229 35.1771 14.0902V30.7868C35.1771 33.2936 37.2093 35.3258 39.7161 35.3258H60.1415C62.6483 35.3258 64.6805 33.2936 64.6805 30.7868L64.6805 14.0902C64.6805 12.6229 63.9712 11.2462 62.7766 10.3944ZM53.8814 1.26483C51.5162 -0.421611 48.3414 -0.421609 45.9761 1.26483L35.7634 8.54652C33.9714 9.82421 32.9076 11.8893 32.9076 14.0902V30.7868C32.9076 34.547 35.9559 37.5953 39.7161 37.5953H60.1415C63.9017 37.5953 66.95 34.547 66.95 30.7868L66.95 14.0902C66.95 11.8893 65.8861 9.82421 64.0941 8.54652L53.8814 1.26483Z" fill="white"/>
<path d="M45.9438 34.0514C45.615 33.6254 45.4793 33.0771 45.5715 32.547C45.6665 32.0002 45.9852 31.5434 46.4232 31.2605C46.2092 30.8952 46.1101 30.4686 46.1473 30.0409C46.2225 29.1753 46.8119 28.4823 47.602 28.2475C47.377 27.8627 47.2784 27.4117 47.3322 26.9638C47.4076 26.3328 47.7651 25.7975 48.2681 25.4753C48.0149 25.142 47.8626 24.7279 47.8626 24.2778C47.8626 23.8389 48.0077 23.4323 48.2513 23.1022C48.1826 23.1058 48.113 23.1078 48.0424 23.1078C47.3854 23.1078 46.7831 22.9444 46.2535 22.6274C46.1443 23.0369 45.9902 23.495 45.7733 23.9543C45.2704 25.0195 44.5712 25.8081 43.7064 26.3062L41.1345 36.461L45.3432 37.0284L46.8162 34.6834C46.4743 34.56 46.1693 34.3434 45.9438 34.0514Z" fill="white"/>
<path d="M48.8301 5.28597C49.0004 5.21593 49.1929 5.24956 49.3252 5.37483C49.4584 5.50092 49.5072 5.69478 49.4532 5.87581L48.6739 8.48714C48.4248 9.32141 48.8854 10.1637 49.6905 10.4041L51.3106 10.8875C52.1156 11.1278 52.9601 10.6753 53.209 9.84163L53.9883 7.23128C54.0423 7.05115 54.19 6.91718 54.3702 6.8846C54.5495 6.85239 54.7297 6.9278 54.8331 7.07991C55.7377 8.41188 56.239 10.2607 55.7129 12.0223C55.0816 14.1362 53.3397 15.6069 51.379 15.9696L49.9229 20.8436L46.3262 16.3475L46.8438 14.6151C45.3679 13.2262 44.7518 11.0513 45.3829 8.93733C45.9091 7.17487 47.3399 5.90342 48.8301 5.28597Z" fill="white"/>
<path d="M52.3578 22.9233C52.3344 22.9233 52.3109 22.9241 52.2872 22.9254C51.5748 22.9676 50.6828 23.0202 49.9578 23.0628C49.8966 23.0663 49.8344 23.0701 49.7758 23.0734C49.1377 23.1106 48.6394 23.6391 48.6394 24.2784C48.6394 24.6387 48.7973 24.9587 49.0447 25.1788C49.1523 25.1612 49.262 25.1506 49.3742 25.1506C49.3806 25.1506 49.3869 25.1512 49.3933 25.1512C49.4287 25.1515 49.4644 25.1523 49.5003 25.1545C50.2379 25.1993 51.1852 25.2565 51.9719 25.3037L52.4586 25.2609C53.0633 25.2079 53.5272 24.7014 53.5272 24.0945C53.5274 23.444 52.9993 22.9233 52.3578 22.9233Z" fill="white"/>
<path d="M52.1185 26.0904C52.0747 26.0878 52.0278 26.085 51.9828 26.0822C51.1851 26.0344 50.209 25.9756 49.4533 25.9297C49.4268 25.928 49.4007 25.9272 49.3745 25.9272C49.3082 25.9272 49.2433 25.9336 49.1792 25.9435C49.0816 25.9586 48.9871 25.9842 48.8977 26.0204C48.4769 26.1901 48.161 26.5775 48.1037 27.0564C48.0512 27.4942 48.2265 27.9019 48.5312 28.17C48.5467 28.1704 48.5615 28.1709 48.5772 28.1713C49.3224 28.1922 50.2096 28.2169 50.9245 28.2365C51.3029 28.2469 51.6684 28.3671 51.9804 28.5727L52.005 28.5734C52.0185 28.5738 52.0316 28.574 52.0448 28.574C52.6715 28.574 53.2034 28.1054 53.2783 27.4787C53.3631 26.7685 52.8327 26.1334 52.1185 26.0904Z" fill="white"/>
<path d="M50.9027 29.0124C50.126 28.9911 49.1487 28.964 48.3681 28.942C48.3343 28.941 48.2994 28.9401 48.2664 28.939C48.2557 28.9386 48.2441 28.9384 48.2335 28.9381C48.2212 28.9377 48.2089 28.9375 48.1965 28.9375C47.5345 28.9375 46.9787 29.4442 46.921 30.1077C46.8928 30.4316 46.9879 30.7355 47.165 30.9766C47.2632 30.9611 47.3631 30.9517 47.4654 30.9517C47.5382 30.9517 47.612 30.956 47.6848 30.9642C47.7276 30.9691 47.7733 30.9743 47.8174 30.9794C48.5096 31.0583 49.3725 31.1562 50.0592 31.2338C50.3323 31.2648 50.5927 31.3571 50.8246 31.4974H50.8696C51.5139 31.4969 52.051 31.004 52.1068 30.3622C52.1416 29.9621 51.9831 29.5919 51.7109 29.3406C51.4982 29.1447 51.2163 29.021 50.9027 29.0124Z" fill="white"/>
<path d="M50.5794 32.2744C50.4151 32.1301 50.2068 32.0323 49.9719 32.0058C49.651 31.9694 49.2906 31.9287 48.9275 31.8874C48.4699 31.8355 48.0081 31.783 47.6125 31.7378C47.6074 31.7373 47.6018 31.7365 47.5968 31.736C47.562 31.7321 47.5275 31.7309 47.4932 31.73C47.484 31.7298 47.4747 31.7285 47.4655 31.7285C47.2822 31.7285 47.1069 31.7733 46.9504 31.8523C46.6374 32.0106 46.4012 32.3091 46.337 32.6792C46.2432 33.2191 46.5427 33.7299 47.0191 33.9315C47.1278 33.9774 47.2456 34.0077 47.3701 34.0181L49.7525 34.2198C49.7845 34.2224 49.816 34.2239 49.8474 34.2239C50.3832 34.2239 50.8494 33.8383 50.9425 33.3016C51.0118 32.9036 50.8602 32.521 50.5794 32.2744Z" fill="white"/>
<path d="M42.6997 26.7336L42.8197 26.2855L42.9445 25.8199C43.3697 25.6347 43.7288 25.3821 44.0349 25.0912C45.5994 23.605 45.7376 21.0885 45.7376 21.0885C46.4231 22.0612 47.2907 22.3308 48.0423 22.3308C48.9786 22.3308 49.7351 21.912 49.7351 21.912L46.1095 17.4176L46.0957 17.4004L41.3335 18.6893L37.8821 25.0985L37.4758 25.3151L37.0696 25.5316L33.475 27.4484V28.1986C33.475 30.7062 34.3778 33.0642 35.9337 34.8986L41.2521 32.1382L42.6997 26.7336Z" fill="white"/>
<path d="M4.62142 63.9031H0V50.9132C0 48.5401 1.14911 47.0412 3.9969 47.0412H12.4903V51.2879H4.62142V54.5604H11.9158V58.8071H4.62142V63.9031Z" fill="white"/>
<path d="M12.2308 63.9031L16.5774 49.7141C17.2019 47.6407 18.9506 46.6665 20.6992 46.6665C22.4478 46.6665 24.1965 47.6407 24.821 49.7141L29.1676 63.9031H24.4463L23.6719 61.0554H17.7515L16.9521 63.9031H12.2308ZM20.5243 51.0631L18.9006 56.9335H22.5228L20.924 51.0631C20.8741 50.8882 20.8241 50.8133 20.7242 50.8133C20.6243 50.8133 20.5743 50.8882 20.5243 51.0631Z" fill="white"/>
<path d="M41.5881 47.0412V51.2879H36.8168V63.9031H32.1954V51.2879H27.4241V47.0412H41.5881Z" fill="white"/>
<path d="M39.8363 63.9031L44.183 49.7141C44.8075 47.6407 46.5561 46.6665 48.3048 46.6665C50.0534 46.6665 51.8021 47.6407 52.4266 49.7141L56.7732 63.9031H52.0519L51.2775 61.0554H45.3571L44.5577 63.9031H39.8363ZM48.1299 51.0631L46.5062 56.9335H50.1284L48.5296 51.0631C48.4796 50.8882 48.4297 50.8133 48.3298 50.8133C48.2298 50.8133 48.1799 50.8882 48.1299 51.0631Z" fill="white"/>
<path d="M62.3941 63.9031H57.7726V50.9132C57.7726 48.5401 58.9217 47.0412 61.7695 47.0412H70.263V51.2879H62.3941V54.5604H69.6884V58.8071H62.3941V63.9031Z" fill="white"/>
<path d="M70.0034 63.9031L74.35 49.7141C74.9745 47.6407 76.7232 46.6665 78.4718 46.6665C80.2205 46.6665 81.9691 47.6407 82.5936 49.7141L86.9403 63.9031H82.2189L81.4445 61.0554H75.5241L74.7247 63.9031H70.0034ZM78.297 51.0631L76.6732 56.9335H80.2954L78.6967 51.0631C78.6467 50.8882 78.5967 50.8133 78.4968 50.8133C78.3969 50.8133 78.3469 50.8882 78.297 51.0631Z" fill="white"/>
<path d="M99.3607 47.0412V51.2879H94.5894V63.9031H89.968V51.2879H85.1967V47.0412H99.3607Z" fill="white"/>
<path d="M24.2937 79.9532C22.6387 79.9532 21.2023 79.1882 20.6247 77.8142L21.4677 77.3927C21.9205 78.4231 22.951 79.0008 24.2937 79.0008C25.7301 79.0008 26.823 78.267 26.823 76.9867C26.823 75.5972 25.5739 75.3318 24.2 75.0507C22.6231 74.7073 20.8276 74.2389 20.8276 72.1624C20.8276 70.523 22.3421 69.2896 24.1532 69.2896C25.652 69.2896 26.9947 70.0078 27.5724 71.3817L26.7449 71.8189C26.2765 70.804 25.3554 70.242 24.1219 70.242C22.8885 70.242 21.8268 71.0382 21.8268 72.1311C21.8268 73.5051 23.1071 73.7861 24.481 74.0828C26.0579 74.4262 27.8222 74.8946 27.8222 76.9867C27.8222 78.7666 26.2921 79.9532 24.2937 79.9532Z" fill="white"/>
<path d="M36.612 79.8283H30.5698C29.8204 79.8283 29.5706 79.4536 29.5706 78.8447V70.3825C29.5706 69.7736 29.8204 69.3989 30.5698 69.3989H36.4715V70.3357H30.5698V74.1452H36.1905V75.082H30.5698V78.8915H36.612V79.8283Z" fill="white"/>
<path d="M39.4286 79.8283H38.445V69.3989H41.7393C43.8158 69.3989 45.4708 70.3513 45.4708 72.4122C45.4708 73.9578 44.4872 75.0039 42.9102 75.2693C43.9095 75.6753 44.4403 76.6745 45.1117 78.0328L46.0016 79.8283H44.9243L44.0968 78.1733C43.363 76.7057 42.7853 75.644 41.0835 75.644H39.4286V79.8283ZM41.7393 70.3357H39.4442V74.7229H41.7081C43.285 74.7229 44.4559 73.9891 44.4559 72.4902C44.4559 70.9758 43.2225 70.3357 41.7393 70.3357Z" fill="white"/>
<path d="M51.1759 80C50.3328 80 49.6771 79.5004 49.3648 78.5012L46.5701 69.3989H47.6006L50.3172 78.2982C50.4734 78.8135 50.7388 79.0945 51.1759 79.0945C51.6131 79.0945 51.8785 78.8135 52.0347 78.2982L54.7357 69.3989H55.7661L52.9714 78.5012C52.6592 79.5004 52.0034 80 51.1759 80Z" fill="white"/>
<path d="M57.1926 69.3989H58.1919V79.8283H57.1926V69.3989Z" fill="white"/>
<path d="M65.0487 80C62.1916 80 59.834 77.6113 59.834 74.598C59.834 71.6159 62.1916 69.2271 65.0487 69.2271C66.7974 69.2271 68.3431 70.1171 69.1705 71.5535L68.3587 72.0375C67.6561 70.8821 66.4071 70.1795 65.0175 70.1795C62.738 70.1795 60.8645 72.1311 60.8645 74.598C60.8645 77.096 62.7224 79.0476 65.0175 79.0476C66.4071 79.0476 67.6561 78.3607 68.3587 77.2053L69.1705 77.6893C68.3431 79.1257 66.7974 80 65.0487 80Z" fill="white"/>
<path d="M77.4739 79.8283H71.4317C70.6823 79.8283 70.4325 79.4536 70.4325 78.8447V70.3825C70.4325 69.7736 70.6823 69.3989 71.4317 69.3989H77.3334V70.3357H71.4317V74.1452H77.0524V75.082H71.4317V78.8915H77.4739V79.8283Z" fill="white"/>
</svg>
