<svg width="125" height="32" viewBox="0 0 125 32" fill="none" xmlns="http://www.w3.org/2000/svg">
<path fill-rule="evenodd" clip-rule="evenodd" d="M25.3886 8.85722L16.7078 2.66778C15.3675 1.71213 13.5685 1.71213 12.2282 2.66778L3.54738 8.85722C2.53192 9.58125 1.92907 10.7515 1.92907 11.9986V26.1908C1.92907 28.3216 3.65641 30.0489 5.7872 30.0489H23.1488C25.2796 30.0489 27.007 28.3216 27.007 26.1908L27.007 11.9986C27.007 10.7515 26.4041 9.58125 25.3886 8.85722ZM17.8278 1.09708C15.8173 -0.336397 13.1187 -0.336395 11.1083 1.09708L2.42746 7.28652C0.904272 8.37256 0 10.1279 0 11.9986V26.1908C0 29.387 2.59102 31.978 5.7872 31.978H23.1488C26.345 31.978 28.936 29.387 28.936 26.1908L28.936 11.9986C28.936 10.1279 28.0317 8.37256 26.5086 7.28652L17.8278 1.09708Z" fill="black"/>
<path d="M11.0807 28.9655C10.8013 28.6034 10.6859 28.1373 10.7643 27.6868C10.845 27.222 11.1159 26.8337 11.4882 26.5933C11.3064 26.2827 11.2221 25.9201 11.2537 25.5565C11.3176 24.8209 11.8186 24.2318 12.4902 24.0322C12.299 23.7051 12.2152 23.3217 12.2609 22.941C12.325 22.4046 12.6289 21.9497 13.0564 21.6758C12.8412 21.3925 12.7117 21.0405 12.7117 20.6579C12.7117 20.2849 12.835 19.9392 13.0421 19.6587C12.9837 19.6617 12.9245 19.6634 12.8645 19.6634C12.3061 19.6634 11.7942 19.5246 11.344 19.2551C11.2511 19.6031 11.1202 19.9926 10.9358 20.3829C10.5083 21.2884 9.91402 21.9587 9.17896 22.3821L6.99285 31.0137L10.5702 31.496L11.8223 29.5027C11.5317 29.3978 11.2724 29.2137 11.0807 28.9655Z" fill="black"/>
<path fill-rule="evenodd" clip-rule="evenodd" d="M11.4058 13.9176L11.8457 12.4444C10.5912 11.2638 10.0676 9.41551 10.6041 7.61856C11.0515 6.1203 12.2675 5.03954 13.5344 4.51477C13.6791 4.45523 13.8421 4.48448 13.9546 4.591C14.0678 4.6982 14.1096 4.86268 14.0636 5.01659L13.4008 7.23615C13.1891 7.94528 13.5809 8.6613 14.2651 8.86562L15.6421 9.27678C16.3264 9.4811 17.0442 9.09593 17.2558 8.38724L17.9182 6.16898C17.964 6.0155 18.09 5.9011 18.2434 5.87352C18.3959 5.84613 18.5488 5.91072 18.6366 6.04019C19.4056 7.17236 19.8311 8.74328 19.384 10.2407C18.8475 12.0376 17.3672 13.2876 15.7005 13.5959L14.4633 17.7394L11.4058 13.9176Z" fill="black"/>
<path d="M16.5326 19.5066C16.5127 19.5066 16.4927 19.5072 16.4726 19.5083C15.867 19.5442 15.1088 19.589 14.4926 19.6251C14.4406 19.6281 14.3877 19.6313 14.3379 19.6342C13.7955 19.6658 13.3719 20.115 13.3719 20.6584C13.3719 20.9646 13.5062 21.2366 13.7165 21.4237C13.8079 21.4088 13.9012 21.3998 13.9965 21.3998C14.0019 21.3998 14.0073 21.4002 14.0127 21.4002C14.0429 21.4006 14.0732 21.4012 14.1037 21.4031C14.7306 21.4412 15.5358 21.4897 16.2046 21.5299L16.6183 21.4935C17.1323 21.4485 17.5266 21.018 17.5266 20.5021C17.5268 19.9492 17.0778 19.5066 16.5326 19.5066Z" fill="black"/>
<path d="M16.3292 22.199C16.2919 22.1968 16.2521 22.1944 16.2139 22.192C15.5358 22.1514 14.7061 22.1014 14.0638 22.0624C14.0412 22.0609 14.019 22.0603 13.9968 22.0603C13.9405 22.0603 13.8852 22.0657 13.8308 22.0741C13.7478 22.087 13.6675 22.1087 13.5915 22.1395C13.2338 22.2837 12.9653 22.613 12.9166 23.0201C12.872 23.3922 13.021 23.7388 13.28 23.9666C13.2932 23.967 13.3057 23.9674 13.319 23.9678C13.9525 23.9855 14.7066 24.0065 15.3142 24.0231C15.6359 24.032 15.9466 24.1342 16.2118 24.3089L16.2327 24.3096C16.2442 24.3099 16.2553 24.31 16.2665 24.31C16.7993 24.31 17.2514 23.9117 17.315 23.379C17.3871 22.7754 16.9362 22.2355 16.3292 22.199Z" fill="black"/>
<path d="M15.2959 24.6825C14.6357 24.6644 13.805 24.6414 13.1415 24.6227C13.1128 24.6219 13.0831 24.6211 13.055 24.6202C13.046 24.6198 13.0361 24.6197 13.0271 24.6194C13.0166 24.6191 13.0061 24.6189 12.9957 24.6189C12.4329 24.6189 11.9605 25.0496 11.9115 25.6136C11.8875 25.8889 11.9683 26.1472 12.1189 26.3521C12.2024 26.3389 12.2873 26.331 12.3742 26.331C12.4361 26.331 12.4988 26.3347 12.5607 26.3416C12.597 26.3458 12.6359 26.3502 12.6734 26.3545C13.2618 26.4216 13.9952 26.5048 14.5789 26.5708C14.8111 26.5971 15.0324 26.6755 15.2295 26.7949H15.2678C15.8154 26.7944 16.272 26.3754 16.3194 25.8299C16.3489 25.4898 16.2142 25.1751 15.9828 24.9615C15.8021 24.795 15.5625 24.6898 15.2959 24.6825Z" fill="black"/>
<path d="M15.021 27.4552C14.8814 27.3326 14.7043 27.2494 14.5047 27.2269C14.2319 27.1959 13.9256 27.1613 13.6169 27.1263C13.228 27.0821 12.8354 27.0375 12.4991 26.9991C12.4948 26.9987 12.4901 26.998 12.4858 26.9976C12.4563 26.9942 12.4269 26.9933 12.3977 26.9925C12.39 26.9923 12.382 26.9912 12.3742 26.9912C12.2184 26.9912 12.0694 27.0293 11.9364 27.0964C11.6703 27.231 11.4695 27.4847 11.415 27.7993C11.3353 28.2582 11.5898 28.6924 11.9948 28.8637C12.0872 28.9028 12.1873 28.9285 12.2932 28.9374L14.3182 29.1088C14.3453 29.111 14.3721 29.1123 14.3988 29.1123C14.8542 29.1123 15.2505 28.7846 15.3297 28.3283C15.3885 27.99 15.2597 27.6649 15.021 27.4552Z" fill="black"/>
<path d="M8.32335 22.7452L8.42539 22.3644L8.53139 21.9686C8.89289 21.8112 9.19805 21.5965 9.4583 21.3492C10.7881 20.0859 10.9055 17.9469 10.9055 17.9469C11.4883 18.7737 12.2257 19.0028 12.8646 19.0028C13.6604 19.0028 14.3034 18.6469 14.3034 18.6469L11.2217 14.8266L11.2099 14.812L7.16206 15.9076L4.22836 21.3554L3.88305 21.5395L3.53774 21.7236L0.48233 23.3529V23.9905C0.48233 26.122 1.24975 28.1262 2.57227 29.6855L7.09287 27.3391L8.32335 22.7452Z" fill="black"/>
<path d="M43.9565 17.6731H40.0283V6.63168C40.0283 4.61449 41.0051 3.34048 43.4257 3.34048H50.6451V6.95018H43.9565V9.73178H50.1567V13.3415H43.9565V17.6731Z" fill="black"/>
<path d="M50.4245 17.6731L54.1191 5.61247C54.6499 3.85008 56.1363 3.02197 57.6226 3.02197C59.109 3.02197 60.5953 3.85008 61.1262 5.61247L64.8208 17.6731H60.8077L60.1494 15.2525H55.1171L54.4376 17.6731H50.4245ZM57.474 6.75908L56.0938 11.749H59.1727L57.8137 6.75908C57.7713 6.61044 57.7288 6.54674 57.6439 6.54674C57.5589 6.54674 57.5165 6.61044 57.474 6.75908Z" fill="black"/>
<path d="M75.3782 3.34048V6.95018H71.3226V17.6731H67.3944V6.95018H63.3388V3.34048H75.3782Z" fill="black"/>
<path d="M73.8892 17.6731L77.5838 5.61247C78.1147 3.85008 79.601 3.02197 81.0874 3.02197C82.5737 3.02197 84.0601 3.85008 84.5909 5.61247L88.2856 17.6731H84.2724L83.6142 15.2525H78.5818L77.9023 17.6731H73.8892ZM80.9387 6.75908L79.5586 11.749H82.6374L81.2785 6.75908C81.236 6.61044 81.1935 6.54674 81.1086 6.54674C81.0237 6.54674 80.9812 6.61044 80.9387 6.75908Z" fill="black"/>
<path d="M93.0633 17.6731H89.1351V6.63168C89.1351 4.61449 90.1118 3.34048 92.5324 3.34048H99.7518V6.95018H93.0633V9.73178H99.2635V13.3415H93.0633V17.6731Z" fill="black"/>
<path d="M99.5312 17.6731L103.226 5.61247C103.757 3.85008 105.243 3.02197 106.729 3.02197C108.216 3.02197 109.702 3.85008 110.233 5.61247L113.928 17.6731H109.914L109.256 15.2525H104.224L103.544 17.6731H99.5312ZM106.581 6.75908L105.201 11.749H108.279L106.92 6.75908C106.878 6.61044 106.836 6.54674 106.751 6.54674C106.666 6.54674 106.623 6.61044 106.581 6.75908Z" fill="black"/>
<path d="M124.485 3.34048V6.95018H120.429V17.6731H116.501V6.95018H112.446V3.34048H124.485Z" fill="black"/>
<path d="M60.678 31.3157C59.2712 31.3157 58.0503 30.6654 57.5593 29.4976L58.2759 29.1392C58.6608 30.0151 59.5366 30.5062 60.678 30.5062C61.8989 30.5062 62.8278 29.8824 62.8278 28.7942C62.8278 27.6131 61.7662 27.3875 60.5983 27.1486C59.258 26.8566 57.7318 26.4585 57.7318 24.6935C57.7318 23.3 59.0191 22.2516 60.5585 22.2516C61.8325 22.2516 62.9738 22.8621 63.4649 24.0299L62.7615 24.4015C62.3634 23.5389 61.5804 23.0611 60.532 23.0611C59.4836 23.0611 58.5811 23.738 58.5811 24.6669C58.5811 25.8348 59.6694 26.0737 60.8372 26.3258C62.1776 26.6178 63.6772 27.0159 63.6772 28.7942C63.6772 30.3071 62.3766 31.3157 60.678 31.3157Z" fill="black"/>
<path d="M71.1485 31.2095H66.0127C65.3757 31.2095 65.1633 30.891 65.1633 30.3734V23.1806C65.1633 22.663 65.3757 22.3445 66.0127 22.3445H71.0291V23.1408H66.0127V26.3789H70.7902V27.1751H66.0127V30.4133H71.1485V31.2095Z" fill="black"/>
<path d="M73.5426 31.2095H72.7065V22.3445H75.5067C77.2717 22.3445 78.6785 23.154 78.6785 24.9058C78.6785 26.2196 77.8424 27.1088 76.502 27.3344C77.3514 27.6794 77.8026 28.5288 78.3732 29.6834L79.1297 31.2095H78.214L77.5106 29.8028C76.8869 28.5553 76.3959 27.6529 74.9493 27.6529H73.5426V31.2095ZM75.5067 23.1408H73.5559V26.8699H75.4802C76.8205 26.8699 77.8159 26.2462 77.8159 24.9722C77.8159 23.6849 76.7674 23.1408 75.5067 23.1408Z" fill="black"/>
<path d="M83.5279 31.3555C82.8112 31.3555 82.2539 30.9308 81.9884 30.0815L79.6129 22.3445H80.4888L82.798 29.909C82.9307 30.3469 83.1563 30.5858 83.5279 30.5858C83.8995 30.5858 84.1251 30.3469 84.2578 29.909L86.5536 22.3445H87.4295L85.054 30.0815C84.7886 30.9308 84.2312 31.3555 83.5279 31.3555Z" fill="black"/>
<path d="M88.6421 22.3445H89.4914V31.2095H88.6421V22.3445Z" fill="black"/>
<path d="M95.3197 31.3555C92.8912 31.3555 90.8872 29.325 90.8872 26.7637C90.8872 24.229 92.8912 22.1985 95.3197 22.1985C96.8061 22.1985 98.1199 22.955 98.8233 24.1759L98.1332 24.5873C97.536 23.6053 96.4743 23.0081 95.2932 23.0081C93.3556 23.0081 91.7631 24.6669 91.7631 26.7637C91.7631 28.8871 93.3424 30.546 95.2932 30.546C96.4743 30.546 97.536 29.962 98.1332 28.98L98.8233 29.3914C98.1199 30.6123 96.8061 31.3555 95.3197 31.3555Z" fill="black"/>
<path d="M105.881 31.2095H100.745C100.108 31.2095 99.896 30.891 99.896 30.3734V23.1806C99.896 22.663 100.108 22.3445 100.745 22.3445H105.762V23.1408H100.745V26.3789H105.523V27.1751H100.745V30.4133H105.881V31.2095Z" fill="black"/>
</svg>
